<svg width="16" height="16" viewBox="0 0 16 16" fill="none" xmlns="http://www.w3.org/2000/svg">
<path d="M6.66699 8.66673C7.2463 9.44119 8.13341 9.92586 9.09809 9.99495C10.0628 10.064 11.0099 9.71073 11.6937 9.02673L13.6937 7.02673C14.9569 5.7188 14.9388 3.63978 13.6531 2.354C12.3673 1.06822 10.2883 1.05015 8.98033 2.31339L7.83366 3.45339" stroke="#99025B" stroke-width="1.5" stroke-linecap="round" stroke-linejoin="round"/>
<path d="M9.33347 7.33333C8.75416 6.55887 7.86705 6.0742 6.90237 6.00511C5.93769 5.93602 4.99056 6.28933 4.3068 6.97333L2.3068 8.97333C1.04356 10.2813 1.06163 12.3603 2.34741 13.6461C3.63318 14.9318 5.7122 14.9499 7.02013 13.6867L8.16013 12.5467" stroke="#99025B" stroke-width="1.5" stroke-linecap="round" stroke-linejoin="round"/>
</svg>
