<svg width="33" height="32" viewBox="0 0 33 32" fill="none" xmlns="http://www.w3.org/2000/svg">
<path fill-rule="evenodd" clip-rule="evenodd" d="M15.1666 20H9.83329C7.63329 20 5.83329 18.2 5.83329 16C5.83329 13.8 7.63329 12 9.83329 12H15.1666V9.33331H9.83329C6.15329 9.33331 3.16663 12.32 3.16663 16C3.16663 19.68 6.15329 22.6666 9.83329 22.6666H15.1666V20ZM23.1666 9.33331H17.8333V12H23.1666C25.3666 12 27.1666 13.8 27.1666 16C27.1666 18.2 25.3666 20 23.1666 20H17.8333V22.6666H23.1666C26.8466 22.6666 29.8333 19.68 29.8333 16C29.8333 12.32 26.8466 9.33331 23.1666 9.33331ZM21.8333 14.6666H11.1666V17.3333H21.8333V14.6666Z" fill="url(#paint0_linear_4313_29667)"/>
<defs>
<linearGradient id="paint0_linear_4313_29667" x1="0.215514" y1="-0.731653" x2="45.6744" y2="19.5391" gradientUnits="userSpaceOnUse">
<stop stop-color="#99025B"/>
<stop offset="1" stop-color="#2C3D98"/>
</linearGradient>
</defs>
</svg>
